<?xml version="1.0"?>
<!DOCTYPE svg PUBLIC "-//W3C//DTD SVG 1.1//EN" "http://www.w3.org/Graphics/SVG/1.1/DTD/svg11.dtd">
<svg width="187.0360460394682mm" height="82.2673734517544mm" viewBox="0 0 187.0360460394682 82.2673734517544" xmlns="http://www.w3.org/2000/svg" version="1.1">
<g id="Unfold_Sketch" transform="translate(84.154681,41.133687) scale(1,-1)">
<path id="Unfold_Sketch_w0000"  d="M -30.5797325026992 39.300000000000054 C -30.553640012642557 39.300000000000054 -30.527547522585934 39.300000000000054 -30.501455032529304 39.300000000000054 C -30.475361487070376 39.30000000000005 -30.449267941611446 39.30000000000005 -30.42317439615252 39.30000000000005 C -30.39708188405791 39.30000000000005 -30.370989371963304 39.30000000000005 -30.344896859868697 39.30000000000005 C -30.318806265187987 39.30000000000005 -30.292715670507278 39.30000000000004 -30.266625075826568 39.30000000000004 C -30.240536320360192 39.300000000000054 -30.214447564893817 39.30000000000006 -30.188358809427438 39.30000000000006 C -30.16227114525624 39.30000000000006 -30.13618348108504 39.300000000000054 -30.110095816913837 39.300000000000054 C -30.084008152742634 39.300000000000054 -30.05792048857143 39.300000000000054 -30.03183282440023 39.300000000000054 C -30.00574406893385 39.300000000000054 -29.979655313467475 39.300000000000054 -29.9535665580011 39.300000000000054 C -29.92747596332039 39.30000000000006 -29.90138536863968 39.300000000000054 -29.87529477395897 39.300000000000054 C -29.849202261864356 39.300000000000054 -29.82310974976975 39.300000000000054 -29.797017237675142 39.300000000000054 C -29.770923692216215 39.300000000000054 -29.744830146757288 39.300000000000054 -29.71873660129836 39.300000000000054 C -29.692644111241798 39.300000000000054 -29.666551621185242 39.300000000000054 -29.640459131128686 39.300000000000054 L 49.36334183841798 39.3 C 49.38943432847455 39.29999999999999 49.41552681853112 39.3 49.44161930858768 39.3 C 49.46771285404661 39.300000000000004 49.493806399505516 39.29999999999999 49.519899944964436 39.29999999999998 C 49.54599245705904 39.29999999999999 49.57208496915366 39.3 49.598177481248264 39.3 C 49.62426807592898 39.3 49.65035867060969 39.29999999999998 49.6764492652904 39.29999999999998 C 49.70253802075679 39.29999999999999 49.728626776223166 39.3 49.75471553168954 39.3 C 49.78080319586074 39.3 49.806890860031935 39.3 49.83297852420314 39.3 C 49.85906618837434 39.29999999999999 49.88515385254554 39.3 49.91124151671674 39.3 C 49.93733027218312 39.3 49.96341902764949 39.3 49.98950778311587 39.3 C 50.01559837779658 39.3 50.0416889724773 39.3 50.06777956715801 39.3 C 50.09387207925262 39.3 50.11996459134723 39.3 50.146057103441834 39.3 C 50.172150648900754 39.3 50.198244194359674 39.29999999999999 50.224337739818594 39.29999999999998 C 50.25043022987526 39.29999999999998 50.27652271993193 39.29999999999999 50.30261520998859 39.3 L 89.11641617953524 39.29999999999997 C 89.14792505725329 39.299999999999976 89.17943393497137 39.299999999999976 89.21094281268942 39.299999999999976 C 89.24245440742578 39.299999999999976 89.27396600216215 39.299999999999976 89.30547759689853 39.299999999999976 C 89.33698661232538 39.299999999999976 89.36849562775225 39.29999999999998 89.4000046431791 39.29999999999998 C 89.43150877634329 39.299999999999976 89.46301290950748 39.29999999999997 89.49451704267167 39.29999999999997 C 89.52601645401035 39.29999999999997 89.55751586534902 39.29999999999997 89.58901527668769 39.29999999999997 C 89.62051187427005 39.299999999999976 89.65200847185238 39.29999999999997 89.68350506943472 39.29999999999997 C 89.71500166701708 39.29999999999998 89.74649826459944 39.29999999999998 89.77799486218179 39.29999999999998 C 89.80949427352047 39.299999999999976 89.84099368485914 39.29999999999997 89.87249309619781 39.29999999999997 C 89.90399722936199 39.29999999999997 89.9355013625262 39.29999999999998 89.96700549569039 39.29999999999998 C 89.99851451111725 39.29999999999999 90.03002352654411 39.29999999999998 90.06153254197096 39.29999999999998 C 90.09304413670733 39.299999999999976 90.1245557314437 39.29999999999997 90.15606732618008 39.299999999999976 C 90.18757620389826 39.299999999999976 90.21908508161647 39.29999999999998 90.25059395933468 39.299999999999976 L 101.04767813227517 39.300000000000004 L 101.04767813227512 -39.30000000000002 L 90.2505939593351 -39.30000000000004 C 90.21908508161684 -39.30000000000002 90.18757620389863 -39.30000000000002 90.15606732618042 -39.30000000000002 C 90.12455573144403 -39.30000000000002 90.09304413670766 -39.30000000000001 90.06153254197127 -39.30000000000001 C 90.0300235265444 -39.30000000000001 89.99851451111753 -39.30000000000001 89.96700549569067 -39.30000000000001 C 89.93550136252647 -39.300000000000004 89.90399722936226 -39.3 89.87249309619804 -39.3 C 89.84099368485937 -39.3 89.80949427352067 -39.3 89.77799486218198 -39.300000000000004 C 89.74649826459961 -39.30000000000001 89.71500166701725 -39.300000000000026 89.68350506943489 -39.300000000000026 C 89.65200847185254 -39.300000000000026 89.62051187427019 -39.300000000000026 89.58901527668785 -39.300000000000026 C 89.55751586534916 -39.300000000000026 89.52601645401046 -39.30000000000004 89.49451704267177 -39.30000000000004 C 89.46301290950758 -39.30000000000005 89.43150877634338 -39.30000000000004 89.40000464317919 -39.30000000000004 C 89.36849562775231 -39.30000000000004 89.33698661232543 -39.30000000000004 89.30547759689856 -39.30000000000004 C 89.27396600216218 -39.30000000000004 89.24245440742581 -39.30000000000004 89.21094281268942 -39.30000000000004 C 89.17943393497148 -39.30000000000004 89.14792505725356 -39.30000000000003 89.11641617953562 -39.300000000000026 L 50.30261520998881 -39.30000000000002 C 50.27652271993222 -39.3 50.25043022987555 -39.3 50.22433773981888 -39.3 C 50.198244194359944 -39.3 50.172150648901 -39.3 50.14605710344207 -39.3 C 50.119964591347454 -39.3 50.09387207925283 -39.3 50.06777956715822 -39.3 C 50.04168897247751 -39.3 50.01559837779679 -39.3 49.989507783116075 -39.3 C 49.963419027649685 -39.3 49.93733027218329 -39.3 49.9112415167169 -39.3 C 49.88515385254569 -39.3 49.859066188374484 -39.3 49.832978524203284 -39.3 C 49.80689086003207 -39.300000000000004 49.780803195860855 -39.30000000000001 49.75471553168965 -39.30000000000001 C 49.72862677622326 -39.300000000000004 49.70253802075687 -39.3 49.676449265290486 -39.3 C 49.65035867060976 -39.3 49.624268075929045 -39.300000000000004 49.59817748124832 -39.300000000000004 C 49.57208496915371 -39.300000000000004 49.545992457059086 -39.3 49.51989994496448 -39.3 C 49.49380639950555 -39.3 49.467712854046624 -39.30000000000001 49.44161930858769 -39.3 C 49.41552681853122 -39.3 49.38943432847475 -39.3 49.363341838418286 -39.3 L -29.64045913112859 -39.29999999999993 C -29.666551621185082 -39.29999999999995 -29.69264411124165 -39.29999999999995 -29.71873660129821 -39.29999999999994 C -29.744830146757145 -39.29999999999994 -29.770923692216076 -39.29999999999994 -29.797017237675007 -39.29999999999994 C -29.82310974976962 -39.29999999999994 -29.849202261864235 -39.29999999999994 -29.87529477395885 -39.29999999999994 C -29.90138536863956 -39.29999999999994 -29.92747596332027 -39.29999999999994 -29.953566558000986 -39.29999999999994 C -29.979655313467372 -39.29999999999993 -30.00574406893376 -39.299999999999926 -30.031832824400144 -39.299999999999926 C -30.057920488571355 -39.29999999999994 -30.084008152742555 -39.29999999999995 -30.110095816913763 -39.299999999999955 C -30.136183481084966 -39.299999999999955 -30.162271145256177 -39.299999999999955 -30.188358809427385 -39.29999999999995 C -30.21444756489377 -39.29999999999994 -30.240536320360157 -39.29999999999994 -30.266625075826543 -39.29999999999994 C -30.292715670507256 -39.29999999999994 -30.318806265187973 -39.29999999999995 -30.344896859868683 -39.299999999999955 C -30.370989371963297 -39.299999999999955 -30.397081884057908 -39.29999999999995 -30.42317439615252 -39.29999999999994 C -30.449267941611453 -39.29999999999994 -30.475361487070387 -39.29999999999994 -30.50145503252932 -39.29999999999994 C -30.52754752258589 -39.29999999999994 -30.553640012642457 -39.29999999999994 -30.579732502699017 -39.29999999999994 L -70.3897325026992 -39.29999999999991 C -70.42124138041726 -39.29999999999992 -70.45275025813534 -39.29999999999991 -70.48425913585342 -39.29999999999991 C -70.5157707305898 -39.29999999999992 -70.54728232532617 -39.299999999999926 -70.57879392006254 -39.299999999999926 C -70.61030293548939 -39.299999999999926 -70.64181195091624 -39.299999999999926 -70.67332096634308 -39.299999999999926 C -70.70482509950727 -39.299999999999926 -70.73632923267145 -39.29999999999992 -70.76783336583563 -39.29999999999992 C -70.7993327771743 -39.29999999999991 -70.83083218851297 -39.29999999999992 -70.86233159985166 -39.299999999999926 C -70.89382819743402 -39.299999999999926 -70.92532479501637 -39.299999999999926 -70.9568213925987 -39.29999999999992 C -70.98831799018105 -39.29999999999991 -71.01981458776338 -39.29999999999991 -71.05131118534572 -39.29999999999991 C -71.08281059668438 -39.299999999999905 -71.11431000802307 -39.29999999999991 -71.14580941936174 -39.29999999999991 C -71.17731355252593 -39.29999999999992 -71.20881768569012 -39.299999999999926 -71.24032181885431 -39.29999999999992 C -71.27183083428116 -39.29999999999991 -71.30333984970801 -39.2999999999999 -71.33484886513486 -39.2999999999999 C -71.36636045987123 -39.2999999999999 -71.3978720546076 -39.29999999999991 -71.42938364934398 -39.29999999999991 C -71.46089252706204 -39.29999999999991 -71.4924014047801 -39.29999999999991 -71.52391028249814 -39.29999999999991 L -82.32099445543876 -39.29999999999995 L -82.32099445543875 39.300000000000054 L -71.52391028249826 39.300000000000054 C -71.49240140478014 39.30000000000008 -71.46089252706207 39.30000000000008 -71.42938364934402 39.30000000000008 C -71.39787205460765 39.30000000000008 -71.36636045987129 39.30000000000008 -71.33484886513492 39.30000000000008 C -71.30333984970805 39.30000000000008 -71.27183083428119 39.30000000000008 -71.24032181885434 39.30000000000008 C -71.20881768569015 39.30000000000008 -71.17731355252599 39.30000000000008 -71.1458094193618 39.30000000000008 C -71.11431000802311 39.30000000000008 -71.08281059668442 39.300000000000075 -71.05131118534574 39.300000000000075 C -71.01981458776338 39.300000000000075 -70.98831799018105 39.30000000000008 -70.9568213925987 39.30000000000008 C -70.92532479501637 39.30000000000008 -70.893828197434 39.30000000000008 -70.86233159985167 39.30000000000008 C -70.830832188513 39.30000000000008 -70.79933277717433 39.30000000000008 -70.76783336583566 39.30000000000008 C -70.73632923267145 39.30000000000009 -70.70482509950726 39.30000000000008 -70.67332096634307 39.30000000000008 C -70.6418119509162 39.30000000000008 -70.61030293548936 39.30000000000008 -70.5787939200625 39.30000000000008 C -70.54728232532612 39.30000000000008 -70.51577073058975 39.30000000000008 -70.48425913585338 39.30000000000008 C -70.45275025813532 39.30000000000008 -70.42124138041726 39.300000000000075 -70.3897325026992 39.30000000000008 L -30.57973250269921 39.300000000000054 " stroke="#000080" stroke-width="0.35 px" style="stroke-width:0.35;stroke-miterlimit:4;stroke-dasharray:none;fill:none;fill-opacity:1;fill-rule: evenodd"/>
<circle cx="-76.52391028249815" cy="-31.499999999999932" r="2.1000000000000005" stroke="#000080" stroke-width="0.35 px" style="stroke-width:0.35;stroke-miterlimit:4;stroke-dasharray:none;fill:none"/>
<circle cx="-76.52391028249829" cy="31.500000000000046" r="2.1000000000000005" stroke="#000080" stroke-width="0.35 px" style="stroke-width:0.35;stroke-miterlimit:4;stroke-dasharray:none;fill:none"/>
<circle cx="95.90113598717154" cy="-31.49999999999974" r="2.1" stroke="#000080" stroke-width="0.35 px" style="stroke-width:0.35;stroke-miterlimit:4;stroke-dasharray:none;fill:none"/>
<circle cx="95.90113598717134" cy="31.500000000000224" r="2.1" stroke="#000080" stroke-width="0.35 px" style="stroke-width:0.35;stroke-miterlimit:4;stroke-dasharray:none;fill:none"/>
<path id="Unfold_Sketch_w0005"  d="M 89.68350506943491 -39.30000000000001 L 89.68350506943455 39.29999999999998 " stroke="#000080" stroke-width="0.35 px" style="stroke-width:0.35;stroke-miterlimit:4;stroke-dasharray:none;fill:none;fill-opacity:1;fill-rule: evenodd"/>
<path id="Unfold_Sketch_w0006"  d="M 49.83297852420328 -39.3 L 49.83297852420299 39.3 " stroke="#000080" stroke-width="0.35 px" style="stroke-width:0.35;stroke-miterlimit:4;stroke-dasharray:none;fill:none;fill-opacity:1;fill-rule: evenodd"/>
<path id="Unfold_Sketch_w0007"  d="M -70.95682139259873 39.30000000000008 L -70.95682139259866 -39.2999999999999 " stroke="#000080" stroke-width="0.35 px" style="stroke-width:0.35;stroke-miterlimit:4;stroke-dasharray:none;fill:none;fill-opacity:1;fill-rule: evenodd"/>
<path id="Unfold_Sketch_w0008"  d="M -30.110095816913773 -39.29999999999994 L -30.110095816913937 39.300000000000054 " stroke="#000080" stroke-width="0.35 px" style="stroke-width:0.35;stroke-miterlimit:4;stroke-dasharray:none;fill:none;fill-opacity:1;fill-rule: evenodd"/>
<title>b'Unfold_Sketch'</title>
</g>
</svg>